<svg xmlns="http://www.w3.org/2000/svg" viewBox="0 0 10.43 10.5"><defs><style>.cls-1{fill:#fff;}</style></defs><g id="레이어_2" data-name="레이어 2"><g id="레이어_1-2" data-name="레이어 1"><g id="레이어_2-2" data-name="레이어 2"><g id="레이어_1-2-2" data-name="레이어 1-2"><path class="cls-1" d="M10.43,3.07V7.41a3.06,3.06,0,0,1-.87,2.2,3,3,0,0,1-2.18.84L6,10.5H4.36L3,10.45a3,3,0,0,1-2.2-.84A3,3,0,0,1,0,7.41v-3A10,10,0,0,1,.05,3.07,3,3,0,0,1,.84.89,3.17,3.17,0,0,1,3,0H7.38A3,3,0,0,1,9.56.89a3.06,3.06,0,0,1,.87,2.2ZM9.3,8.34a4.14,4.14,0,0,0,.19-1.26,11.85,11.85,0,0,0,0-1.46V4.88a11.85,11.85,0,0,0,0-1.46A4.14,4.14,0,0,0,9.3,2.16a1.88,1.88,0,0,0-1-1A4.52,4.52,0,0,0,7,1L5.57.94H4.83c-.49,0-1,0-1.46.06a4.53,4.53,0,0,0-1.26.19,1.88,1.88,0,0,0-1,1A4.61,4.61,0,0,0,1,3.42V7.08a4.86,4.86,0,0,0,.19,1.26,1.88,1.88,0,0,0,1,1,4.53,4.53,0,0,0,1.26.19H7.06a4.47,4.47,0,0,0,1.26-.19A1.81,1.81,0,0,0,9.3,8.34ZM5.2,2.55A2.73,2.73,0,1,1,5.24,8h0A2.74,2.74,0,0,1,2.5,5.3,2.74,2.74,0,0,1,5.2,2.6ZM5.2,7A1.78,1.78,0,1,0,4,6.49,1.78,1.78,0,0,0,5.2,7ZM8.65,2.44A.8.8,0,0,0,8.46,2,.65.65,0,0,0,8,1.84.6.6,0,0,0,7.57,2,.63.63,0,0,0,8,3.08a.64.64,0,0,0,.64-.64Z"/></g></g></g></g></svg>