<svg xmlns="http://www.w3.org/2000/svg" viewBox="0 0 12.8 9"><defs><style>.cls-1{fill:#fff;}</style></defs><g id="레이어_2" data-name="레이어 2"><g id="레이어_1-2" data-name="레이어 1"><g id="레이어_2-2" data-name="레이어 2"><g id="레이어_1-2-2" data-name="레이어 1-2"><path class="cls-1" d="M12.54,1.41a10.31,10.31,0,0,1,.19,1.24,7.38,7.38,0,0,0,.07,1.29V5.09a8.23,8.23,0,0,1-.07,1.26,10.8,10.8,0,0,1-.19,1.27,1.62,1.62,0,0,1-1.15,1.12,14.3,14.3,0,0,1-1.73.19L7.48,9H5.32L3.14,8.93a14.3,14.3,0,0,1-1.73-.19A1.62,1.62,0,0,1,.26,7.62,10.8,10.8,0,0,1,.07,6.35,8.23,8.23,0,0,1,0,5.09V3.94A8.61,8.61,0,0,1,.07,2.65,10.31,10.31,0,0,1,.26,1.41,1.7,1.7,0,0,1,1.41.26,14.3,14.3,0,0,1,3.14.07L5.32,0H7.48L9.66.07a14.3,14.3,0,0,1,1.73.19A1.7,1.7,0,0,1,12.54,1.41Zm-7.45,5L8.44,4.5,5.09,2.6Z"/></g></g></g></g></svg>