<svg xmlns="http://www.w3.org/2000/svg" viewBox="0 0 386.06 354.67"><defs><style>.cls-1{fill:#fff;}</style></defs><g id="레이어_2" data-name="레이어 2"><g id="Layer_1" data-name="Layer 1"><path class="cls-1" d="M154.29,129.62l-12.93,36.92h26.28l-12.93-36.88C154.56,129.66,154.44,129.62,154.29,129.62Z"/><path class="cls-1" d="M193,0C86.42,0,0,68.32,0,152.6c0,54.86,36.62,102.93,91.57,129.83C87.54,297.51,77,337,74.83,345.5c-2.61,10.5,3.85,10.36,8.08,7.53,3.32-2.21,52.9-35.91,74.29-50.46A244.43,244.43,0,0,0,193,305.21c106.61,0,193-68.34,193-152.61S299.64,0,193,0ZM98,194.48a9.39,9.39,0,0,1-9.35,9.37h-2a9.39,9.39,0,0,1-9.36-9.37V126.86H58.91a9.6,9.6,0,1,1,0-19.2h56.44a9.6,9.6,0,1,1,0,19.2H98Zm92.41,8.87a9.34,9.34,0,0,1-11.9-5.71L173.75,184h-38.5l-4.79,13.67a9.33,9.33,0,0,1-17.61-6.19l27.67-74.19a10.31,10.31,0,0,1,.54-1.27c1.12-5.49,6.8-9.69,13.67-9.69,6.19,0,11.38,3.42,13.18,8.11l.1.08,28.13,77A9.34,9.34,0,0,1,190.43,203.35Zm60.58-.13H212.65a8.7,8.7,0,0,1-8.71-8.72,8.27,8.27,0,0,1,.16-1.66,10.16,10.16,0,0,1-.16-1.67V116.73a10.41,10.41,0,1,1,20.82,0v69.06H251a8.72,8.72,0,0,1,0,17.43ZM333,202a9.3,9.3,0,0,1-13-1.85l-27.67-36.31-5.95,5.94v23.67a10.42,10.42,0,1,1-20.83,0V116.73a10.42,10.42,0,1,1,20.83,0v27.12l32.72-32.71a9.17,9.17,0,1,1,13,13l-26.43,26.44L334.89,189A9.31,9.31,0,0,1,333,202Z"/></g></g></svg>