<?xml version="1.0" encoding="utf-8"?>
<!-- Generator: Adobe Illustrator 21.0.0, SVG Export Plug-In . SVG Version: 6.00 Build 0)  -->
<svg version="1.1" id="레이어_1" xmlns="http://www.w3.org/2000/svg" xmlns:xlink="http://www.w3.org/1999/xlink" x="0px"
	 y="0px" viewBox="0 0 148.2 137.6" style="enable-background:new 0 0 148.2 137.6;" xml:space="preserve">
<style type="text/css">
	.st0{fill:#FFFFFF;}
</style>
<title>자산 1</title>
<g id="레이어_2">
	<g id="레이어_1-2">
		<path class="st0" d="M32.3,50.7c-2.8,0-5.1,2.3-5.1,5.1c0,2.8,2.3,5.1,5.1,5.1c2.8,0,5.1-2.3,5.1-5.1c0,0,0,0,0,0
			C37.4,53,35.1,50.7,32.3,50.7z"/>
		<circle class="st0" cx="82.8" cy="55.7" r="5.5"/>
		<path class="st0" d="M128.4,0H19.8C8.9,0,0,8.8,0,19.8c0,0,0,0,0,0v64.5c0,10.9,8.8,19.8,19.8,19.8c0,0,0,0,0,0h38.4l13,30.8
			c0,0,0.9,2.7,3.1,2.7l0,0c2.2,0,3.1-2.7,3.1-2.7l13-30.8h38c10.9,0,19.8-8.8,19.8-19.8c0,0,0,0,0,0V19.8
			c0-10.9-8.7-19.8-19.6-19.8C128.5,0,128.5,0,128.4,0z M46.5,57c-0.1,11.8-12.2,12.1-12.2,12.1c-2.8,0-5.5-1.1-7.4-3.1v2.1H18V31.5
			l0,0c0.6,0.1,8.9,0,8.9,0v14C29,41.9,35,42,35,42C48.2,43.2,46.5,57,46.5,57z M62.2,43.1v25.1h-8.7V43.4c0-3.4-4.2-4.3-4.2-4.3
			v-8.8C63.2,30.8,62.2,43.1,62.2,43.1z M82.8,69.1c-8,0-14.6-6-14.6-13.4s6.5-13.4,14.6-13.4s14.6,6,14.6,13.4S90.8,69.1,82.8,69.1
			z M130.4,69.1c0,0,0.1,12.7-12.8,12.7h-3.9v-8.2h2.4c0,0,5.4,0.5,5.4-7.9c0,0-1.1,3.4-8.7,3.4c0,0-10.8-0.8-10.8-11.3v-4
			c0,0,0.2-10.9,12.1-11.8c2.9-0.2,5.8,1.1,7.6,3.4v-2.7h8.8L130.4,69.1L130.4,69.1z"/>
		<circle class="st0" cx="116.5" cy="55.7" r="5.4"/>
	</g>
</g>
</svg>
