<svg xmlns="http://www.w3.org/2000/svg" viewBox="0 0 172.23 50.13"><defs><style>.cls-1{fill:#847770;}</style></defs><g id="레이어_2" data-name="레이어 2"><g id="레이어_1-2" data-name="레이어 1"><g id="레이어_2-2" data-name="레이어 2"><g id="레이어_1-2-2" data-name="레이어 1-2"><g id="레이어_2-2-2" data-name="레이어 2-2"><g id="Layer_1" data-name="Layer 1"><path class="cls-1" d="M0,42.15H2.35C4.7,42.15,6,43.35,6,45.81V46c0,2.42-1.12,3.87-3.63,3.87H0ZM2.4,49c1.73,0,2.5-.86,2.5-2.84v-.39c0-2.1-1-2.78-2.64-2.78H1v6Z"/><path class="cls-1" d="M8.62,42.15h4.59V43H9.64v2.46h2.79v.86H9.64V49h3.65v.85H8.62Z"/><path class="cls-1" d="M15.51,49.57v-.85a5,5,0,0,0,2.18.5c1.13,0,1.63-.53,1.63-1.34s-.33-1-1.23-1.35l-.81-.27a2.06,2.06,0,0,1-1.67-2.11c0-1.22.83-2.09,2.46-2.09a4,4,0,0,1,1.9.42v.86a4.93,4.93,0,0,0-2-.41c-.89,0-1.4.41-1.4,1.13s.24,1,1.07,1.29l.8.27c1.14.38,1.86.89,1.86,2.19s-.79,2.29-2.62,2.29A4.44,4.44,0,0,1,15.51,49.57Z"/><path class="cls-1" d="M23,42.15h1v7.76H23Z"/><path class="cls-1" d="M26.67,46.24V46c0-3,1.77-4,3.7-4a4,4,0,0,1,2,.47v.87a4.68,4.68,0,0,0-2.11-.47c-1.9,0-2.52,1.41-2.52,2.94v.35c0,1.72.49,3,2.55,3A4.28,4.28,0,0,0,31.67,49V47H30.08v-.8h2.63v3.49a6.5,6.5,0,0,1-2.43.44C28.11,50.07,26.67,48.92,26.67,46.24Z"/><path class="cls-1" d="M35.53,42.15h1.21l3.55,6h0v-6h.93v7.76h-1l-3.71-6.36h0v6.36h-.94Z"/><path class="cls-1" d="M50.27,46.94l-2.53-4.79h1.08l2,3.79h0l1.94-3.79h1L51.3,46.91v3h-1Z"/><path class="cls-1" d="M55.63,46.15v-.23c0-2.4,1.29-3.89,3.44-3.89s3.39,1.39,3.39,3.9v.22C62.46,48.56,61.18,50,59,50S55.63,48.69,55.63,46.15Zm5.75.18v-.39c0-1.79-.62-3.06-2.36-3.07-1.57,0-2.3,1.24-2.3,2.88v.4c0,1.8.62,3.09,2.34,3.09s2.32-1.25,2.32-2.89Z"/><path class="cls-1" d="M65,47.25v-5.1h1v5c0,1.62.67,2.1,1.91,2.1s1.83-.47,1.83-2.11v-5h.93v5c0,2-.93,2.88-2.8,2.88A2.55,2.55,0,0,1,65,47.82h0A2.18,2.18,0,0,1,65,47.25Z"/><path class="cls-1" d="M73.75,42.15H76c1.7,0,2.6.75,2.6,2.21a2,2,0,0,1-1.47,2v.06l2,3.46H78l-1.8-3.22H74.82v3.28h-1ZM76,45.83c1.13,0,1.59-.46,1.59-1.45S77.08,43,76,43H74.78v2.81Z"/><path class="cls-1" d="M85.32,46.15v-.23c0-2.4,1.29-3.89,3.44-3.89s3.4,1.39,3.4,3.9v.22c0,2.41-1.29,3.89-3.44,3.89S85.32,48.69,85.32,46.15Zm5.75.18v-.39c0-1.79-.62-3.06-2.36-3.07-1.57,0-2.3,1.24-2.3,2.88v.4c0,1.8.62,3.09,2.34,3.09s2.32-1.25,2.32-2.89Z"/><path class="cls-1" d="M94.73,47.25v-5.1h1v5c0,1.62.67,2.1,1.91,2.1s1.83-.47,1.83-2.11v-5h.94v5c0,2-.94,2.88-2.81,2.88a2.55,2.55,0,0,1-2.86-2.2h0A2.18,2.18,0,0,1,94.73,47.25Z"/><path class="cls-1" d="M105.07,43.05h-2.29v-.9h5.61V43h-2.3v6.89h-1Z"/><path class="cls-1" d="M110.78,42.15h2.35c2.35,0,3.64,1.2,3.64,3.66V46c0,2.42-1.12,3.87-3.62,3.87h-2.37Zm2.43,6.92c1.73,0,2.5-.86,2.5-2.84v-.39c0-2.1-1-2.78-2.64-2.78h-1.23v6Z"/><path class="cls-1" d="M119,46.15v-.23c0-2.4,1.3-3.89,3.45-3.89s3.39,1.39,3.39,3.9v.22c0,2.41-1.28,3.89-3.43,3.89S119,48.69,119,46.15Zm5.75.18v-.39c0-1.79-.62-3.06-2.36-3.07-1.56,0-2.29,1.24-2.29,2.88v.4c0,1.8.62,3.09,2.34,3.09s2.31-1.25,2.31-2.89Z"/><path class="cls-1" d="M128,46.15v-.23c0-2.4,1.3-3.89,3.45-3.89s3.39,1.39,3.39,3.9v.22c0,2.41-1.28,3.89-3.43,3.89S128,48.69,128,46.15Zm5.75.18v-.39c0-1.79-.62-3.06-2.36-3.07-1.56,0-2.29,1.24-2.29,2.88v.4c0,1.8.62,3.09,2.34,3.09s2.31-1.25,2.31-2.89Z"/><path class="cls-1" d="M137.44,42.15h2.28c1.71,0,2.6.75,2.6,2.21a2,2,0,0,1-1.47,2v.06l2,3.46h-1.17l-1.87-3.28h-1.39v3.28h-1Zm2.22,3.68c1.13,0,1.58-.46,1.58-1.45S140.77,43,139.65,43h-1.19v2.81Z"/><path class="cls-1" d="M149.45,42.15h1v6.91h3.42v.85h-4.44Z"/><path class="cls-1" d="M156.38,42.15h1v7.76h-1Z"/><path class="cls-1" d="M160.51,42.15H165V43h-3.48v2.61h2.68v.86h-2.69v3.42h-1Z"/><path class="cls-1" d="M167.55,42.15h4.66V43H168.6v2.46h2.78v.86H168.6V49h3.61v.85h-4.67Z"/><path class="cls-1" d="M115.15.67,91.66,25.28V.67H84.44V28.43A5.92,5.92,0,0,0,88,33.89a6.09,6.09,0,0,0,2.45.52,6,6,0,0,0,4-1.54L106,20.79l9.54,13.62h8.81l-13.26-19L125.16.63Z"/><path class="cls-1" d="M149,0a8.12,8.12,0,0,0-7.17,4.3l-16,30.11H134L148.21,7.7,149,6.25l.8,1.45L164,34.41h8.23l-16-30.1A8.12,8.12,0,0,0,149,0Z"/><path class="cls-1" d="M25.92,0H15.78A15.8,15.8,0,0,0,0,15.78V19.3A15.8,15.8,0,0,0,15.78,35.08H25.92A15.8,15.8,0,0,0,41.7,19.3V15.78A15.8,15.8,0,0,0,25.92,0ZM7.21,15.78a8.57,8.57,0,0,1,8.55-8.55H25.92a8.57,8.57,0,0,1,8.55,8.55V19.3a8.55,8.55,0,0,1-8.55,8.55H15.78a8.55,8.55,0,0,1-8.57-8.53h0Z"/><path class="cls-1" d="M69.34,13.93H52.87v-6H77.33V.67H55.89a10.25,10.25,0,0,0,0,20.49H72.36v6H47.91v7.22H69.34a10.24,10.24,0,0,0,0-20.48h0Z"/></g></g></g></g></g></g></svg>