<?xml version="1.0" standalone="no"?>
<!DOCTYPE svg PUBLIC "-//W3C//DTD SVG 20010904//EN"
 "http://www.w3.org/TR/2001/REC-SVG-20010904/DTD/svg10.dtd">
<svg version="1.0" xmlns="http://www.w3.org/2000/svg"
 width="128.000000pt" height="128.000000pt" viewBox="0 0 128.000000 128.000000"
 preserveAspectRatio="xMidYMid meet">
<metadata>
Created by potrace 1.14, written by Peter Selinger 2001-2017
</metadata>
<g transform="translate(0.000000,128.000000) scale(0.100000,-0.100000)"
fill="#000000" stroke="none">
<path d="M0 640 l0 -640 640 0 640 0 0 640 0 640 -640 0 -640 0 0 -640z m1000
446 l0 -45 -316 -338 c-174 -186 -336 -358 -361 -383 l-44 -45 3 52 3 53 350
374 c193 206 353 375 358 376 4 0 7 -20 7 -44z m0 -200 l0 -45 -326 -348
c-295 -315 -329 -348 -361 -351 -30 -3 -34 -1 -31 18 3 20 695 769 711 770 4
0 7 -20 7 -44z m0 -200 c0 -45 -1 -46 -235 -295 l-236 -251 -45 0 -46 0 54 59
c137 152 494 530 501 531 4 0 7 -20 7 -44z m0 -200 c0 -43 -4 -48 -141 -195
l-141 -151 -45 0 -44 0 23 29 c42 53 333 360 341 361 4 0 7 -20 7 -44z m0
-199 c0 -36 -7 -50 -46 -95 -44 -50 -48 -52 -96 -52 l-50 0 89 95 c48 52 91
94 96 95 4 0 7 -19 7 -43z"/>
</g>
</svg>
